<svg width="86" height="63" viewBox="0 0 86 63" fill="none" xmlns="http://www.w3.org/2000/svg">
<rect x="4.57471" y="9.15137" width="15.2524" height="3.05051" fill="black"/>
<path d="M15.251 4.57631C15.251 3.73359 14.5685 3.05103 13.7258 3.05103H10.6752C9.83435 3.05103 9.1499 3.73359 9.1499 4.57631V6.10158H15.251V4.57631Z" fill="black"/>
<path d="M79.3117 12.2019V9.15137H70.7188L72.5486 12.2019H79.3117Z" fill="black"/>
<path d="M18.3013 21.3543H31.9849C34.7152 18.6259 38.0176 16.542 41.6553 15.2532H18.3013V21.3543Z" fill="black"/>
<path d="M15.251 28.9788V15.2532H0V59.4844C0 61.1698 1.36511 62.5349 3.04865 62.5349H15.251C16.9363 62.5349 18.3013 61.1698 18.3013 59.4844V32.6623L15.6989 30.0579C15.413 29.7719 15.251 29.3849 15.251 28.9788Z" fill="black"/>
<path d="M61.6714 0H38.9938L31.6729 12.202H68.9922L61.6714 0Z" fill="black"/>
<path d="M54.529 23.4135C45.5564 21.0951 36.4047 26.4908 34.0882 35.4613C31.7716 44.4338 37.1654 53.5855 46.1379 55.902C55.1105 58.2185 64.2622 52.8228 66.5767 43.8504C67.7093 39.5415 67.0744 34.9599 64.8112 31.12C62.5482 27.2839 58.8474 24.5079 54.529 23.4135Z" fill="black"/>
<path d="M76.2606 39.6557C76.2606 47.3088 72.8707 54.5691 67.0059 59.4843H80.8364C83.3646 59.4843 85.4124 57.4347 85.4124 54.9085V24.4048H71.2539C74.5065 28.8243 76.2606 34.1685 76.2606 39.6557Z" fill="black"/>
<path d="M80.8362 15.2532H59.0093C62.6452 16.542 65.9495 18.6259 68.6796 21.3543H85.412V19.829C85.412 17.3008 83.3643 15.2532 80.8362 15.2532Z" fill="black"/>
<path d="M50.3323 16.7783C37.6976 16.7783 27.4531 27.0206 27.4531 39.6556C27.4531 52.2906 37.6976 62.5348 50.3323 62.5348C62.9675 62.5348 73.2117 52.2906 73.2117 39.6556C73.1965 27.0263 62.9619 16.7917 50.3323 16.7783ZM60.3994 56.7387C57.3604 58.5405 53.894 59.4919 50.3631 59.4938C48.6777 59.4919 47.0018 59.2783 45.3715 58.855C36.2122 56.4909 29.9986 47.9836 30.5325 38.5402C31.0662 29.0949 38.1969 21.3427 47.5641 20.0233C56.9313 18.704 65.9247 24.1855 69.0478 33.1141C72.1688 42.0446 68.5481 51.9341 60.3994 56.7387Z" fill="black"/>
<path d="M24.4025 39.6557C24.4042 34.1685 26.1584 28.8243 29.4111 24.4048H18.3013V28.3476L20.9058 30.952C21.1917 31.238 21.3519 31.6251 21.3519 32.0293V59.4843H33.6572C27.7924 54.5691 24.4042 47.3088 24.4025 39.6557Z" fill="black"/>
</svg>
