<svg width="86" height="89" viewBox="0 0 86 89" fill="none" xmlns="http://www.w3.org/2000/svg">
<path d="M32.3508 77.8891H53.293C53.3271 77.2866 53.3691 76.5793 53.4246 75.8052H32.2192C32.2727 76.5793 32.3164 77.2866 32.3508 77.8891Z" fill="black"/>
<path d="M45.2985 73.056V59.8776C45.2985 59.5649 45.3901 59.2579 45.5616 58.9967L47.9792 55.317V48.5066C47.9792 47.765 47.5104 47.1072 46.8087 46.867L46.4157 46.7468L43.7829 48.7183C43.2126 49.1453 42.4292 49.1453 41.8591 48.7183L39.226 46.7468L38.8353 46.867C38.1335 47.1072 37.6646 47.765 37.6646 48.5066V55.317L40.0821 58.9967C40.2537 59.2579 40.3452 59.5649 40.3452 59.8776V73.056H45.2985Z" fill="black"/>
<path d="M42.822 88.2039C46.4273 88.2039 52.4083 88.1981 53.1233 80.6404H32.5205C33.2355 88.1981 39.2166 88.2039 42.822 88.2039Z" fill="black"/>
<ellipse cx="42.8219" cy="37.546" rx="1.77647" ry="1.77646" fill="black"/>
<path d="M42.822 20.0105C29.9924 20.0105 19.5557 30.4472 19.5557 43.2767C19.5557 50.0242 23.1553 54.5028 26.6367 58.8346C27.7272 60.194 28.8561 61.5972 29.8723 63.0672C30.999 64.6974 31.634 69.1359 31.9982 73.0559H37.1365V60.3579L34.7189 56.6782C34.5472 56.4151 34.4557 56.11 34.4557 55.7974V48.5065C34.4557 46.3769 35.8132 44.4912 37.8361 43.8182C37.8475 43.8125 39.064 43.4388 39.064 43.4388C39.556 43.2901 40.0879 43.3816 40.4978 43.6886L42.822 45.4293L45.1461 43.6886C45.5559 43.3816 46.088 43.2901 46.5798 43.4388C46.5798 43.4388 47.7962 43.8125 47.8078 43.8182C49.8305 44.4912 51.1882 46.3749 51.1882 48.5065V55.7974C51.1882 56.11 51.0966 56.417 50.925 56.6782L48.5075 60.3579V73.0559H53.6457C54.0099 69.1359 54.6448 64.6974 55.7717 63.0672C56.7878 61.5972 57.9166 60.194 59.007 58.8346C62.4886 54.5028 66.0883 50.0242 66.0883 43.2767C66.0883 30.4472 55.6516 20.0105 42.822 20.0105ZM42.822 42.5312C40.0726 42.5312 37.8361 40.2948 37.8361 37.5455C37.8361 34.7962 40.0726 32.5616 42.822 32.5616C45.5712 32.5616 47.8078 34.7962 47.8078 37.5455C47.8078 40.2948 45.5712 42.5312 42.822 42.5312Z" fill="black"/>
<path d="M40.1699 1.30986C40.1699 0.586443 40.7564 0 41.4798 0H43.8557C44.5791 0 45.1655 0.586447 45.1655 1.30987V12.0197C45.1655 12.7431 44.5791 13.3296 43.8557 13.3296H41.4798C40.7564 13.3296 40.1699 12.7431 40.1699 12.0197V1.30986Z" fill="black"/>
<path d="M24.5721 16.3707C25.2622 17.5643 26.7895 17.9742 27.9848 17.284C29.1803 16.5938 29.5882 15.0666 28.8981 13.8731L24.7321 6.6547C24.0419 5.45926 22.5148 5.05125 21.3194 5.74143C20.1258 6.42972 19.7159 7.9569 20.4061 9.15234L24.5721 16.3707Z" fill="black"/>
<path d="M6.61565 24.7981L13.834 28.9659C15.0277 29.6561 16.5547 29.2462 17.2449 28.0527V28.0508C17.9352 26.8572 17.5253 25.3301 16.3315 24.6399L9.11327 20.472C7.91967 19.7838 6.39263 20.1918 5.70245 21.3872C5.01232 22.5807 5.42205 24.1079 6.61565 24.7981Z" fill="black"/>
<path d="M0 41.5579C0 40.8345 0.586447 40.248 1.30987 40.248H12.0198C12.7432 40.248 13.3296 40.8345 13.3296 41.5579V43.9338C13.3296 44.6572 12.7432 45.2436 12.0198 45.2436H1.30987C0.586448 45.2436 0 44.6572 0 43.9338V41.5579Z" fill="black"/>
<path d="M17.2831 57.4294C16.5948 56.2359 15.0658 55.826 13.8721 56.5162L6.65379 60.684C5.46025 61.3723 5.0504 62.8995 5.74046 64.0949C6.43065 65.2884 7.95793 65.6984 9.15147 65.0082L16.37 60.8422C17.5633 60.1521 17.9734 58.6249 17.2831 57.4294Z" fill="black"/>
<path d="M78.7995 60.6155L71.583 56.4476C70.3875 55.7593 68.8604 56.1674 68.1702 57.3628C67.4799 58.5563 67.8899 60.0854 69.0854 60.7737L76.3019 64.9415C77.4972 65.6317 79.0245 65.2218 79.7147 64.0283V64.0264C80.4048 62.8328 79.9949 61.3056 78.7995 60.6155Z" fill="black"/>
<path d="M72.0845 41.4798C72.0845 40.7564 72.6709 40.1699 73.3943 40.1699H84.1042C84.8276 40.1699 85.4141 40.7564 85.4141 41.4798V43.855C85.4141 44.5784 84.8276 45.1648 84.1042 45.1648H73.3943C72.6709 45.1648 72.0845 44.5784 72.0845 43.855V41.4798Z" fill="black"/>
<path d="M68.1283 27.982C68.8184 29.1775 70.3456 29.5855 71.5412 28.8972L78.7597 24.7294C79.9531 24.0392 80.363 22.512 79.6728 21.3185C78.9827 20.123 77.4555 19.7131 76.262 20.4033L69.0435 24.5711C67.848 25.2594 67.44 26.7885 68.1283 27.982Z" fill="black"/>
<path d="M57.3634 17.246C58.5571 17.9362 60.0842 17.5263 60.7745 16.3327L64.9423 9.11434C65.6325 7.91891 65.2224 6.39172 64.0272 5.70153C62.8336 5.01324 61.3063 5.42126 60.6162 6.6167L56.4484 13.8351C55.7583 15.0286 56.1682 16.5558 57.3634 17.246Z" fill="black"/>
</svg>
