<svg width="86" height="60" viewBox="0 0 86 60" fill="none" xmlns="http://www.w3.org/2000/svg">
<path d="M0 15.2677V56.1223C0 58.1719 1.66827 59.8402 3.7179 59.8402H20.683V11.5498H3.7179C1.66827 11.5498 0 13.2181 0 15.2677ZM13.0793 54.8067H7.61121C6.22333 54.8067 5.09833 53.6818 5.09833 52.2957C5.09833 50.9078 6.22333 49.7829 7.61121 49.7829H13.0793C14.4674 49.7829 15.5902 50.9078 15.5902 52.2957C15.5902 53.6818 14.4674 54.8067 13.0793 54.8067ZM7.61121 16.5813H13.0793C14.4674 16.5813 15.5902 17.71 15.5902 19.0961C15.5902 20.4822 14.4674 21.609 13.0793 21.609H7.61121C6.22333 21.609 5.09833 20.4822 5.09833 19.0961C5.09833 17.71 6.22333 16.5813 7.61121 16.5813ZM10.1757 27.8837C14.4808 27.8837 17.9871 31.3899 17.9871 35.695C17.9871 40.002 14.4808 43.5063 10.1757 43.5063C5.86676 43.5063 2.36407 40.002 2.36407 35.695C2.36407 31.3899 5.86676 27.8837 10.1757 27.8837Z" fill="black"/>
<ellipse cx="10.175" cy="35.6941" rx="2.78684" ry="2.78683" fill="black"/>
<path d="M64.9297 30.5338L54.43 34.1831C52.4471 34.8732 50.5483 32.9609 51.2311 30.9857L54.8819 20.486C55.0059 20.1276 55.2098 19.8016 55.4788 19.5327L63.4616 11.5498H25.707V59.8402H70.0893C72.1406 59.8402 73.8088 58.1719 73.8088 56.1223V22.0094L65.8813 29.9371C65.6143 30.2059 65.2884 30.4099 64.9297 30.5338ZM39.9168 20.5623H34.6224V25.855C34.6224 27.2449 33.4974 28.3679 32.1097 28.3679C30.7232 28.3679 29.5986 27.2449 29.5986 25.855V18.0475C29.5986 16.6595 30.7232 15.5365 32.1097 15.5365H39.9168C41.3049 15.5365 42.4299 16.6595 42.4299 18.0475C42.4299 19.4355 41.3049 20.5623 39.9168 20.5623ZM69.9155 45.535V53.3425C69.9155 54.7286 68.7927 55.8535 67.4045 55.8535H59.5991C58.209 55.8535 57.0859 54.7286 57.0859 53.3425C57.0859 51.9545 58.209 50.8296 59.5991 50.8296H64.8915V45.535C64.8915 44.1469 66.0168 43.022 67.4045 43.022C68.7927 43.022 69.9155 44.1469 69.9155 45.535Z" fill="black"/>
<path d="M84.7314 0.682085C83.8223 -0.227362 82.3447 -0.227362 81.4352 0.682085C62.2166 19.8968 82.9186 -0.797438 59.4387 22.6785L57.6807 27.7329L62.735 25.975C76.2111 12.4992 71.1967 17.5154 84.7314 3.9805C85.6429 3.07105 85.6429 1.59153 84.7314 0.682085Z" fill="black"/>
</svg>
