<svg width="97" height="79" viewBox="0 0 97 79" fill="none" xmlns="http://www.w3.org/2000/svg">
<path d="M80.2229 64.2007C76.3385 64.2007 73.1851 67.3502 73.1851 71.2365C73.1851 75.1247 76.3385 78.2761 80.2229 78.2761C84.1092 78.2761 87.2588 75.1285 87.2588 71.2365C87.2588 67.3502 84.111 64.2007 80.2229 64.2007ZM80.2229 73.361C79.0565 73.361 78.1003 72.4085 78.1003 71.2365C78.1003 70.0664 79.0565 69.112 80.2229 69.112C81.391 69.112 82.3492 70.0664 82.3492 71.2365C82.3492 72.4085 81.391 73.361 80.2229 73.361Z" fill="black"/>
<path d="M95.9852 65.4682V62.0286C95.9852 60.45 94.9088 59.0719 93.376 58.6882L81.4385 55.7086L72.5663 48.5754C69.7815 46.3383 66.3188 45.1186 62.7495 45.1186H58.9014V37.68L74.5402 33.5742L81.95 31.4287L84.7806 29.5791V40.0965C84.4161 39.7721 83.9238 39.5888 83.3835 39.6136C82.5685 39.6499 81.8297 40.297 81.6655 41.1177C81.6542 41.175 81.6388 41.2304 81.6274 41.2876V41.7209C81.6427 41.7935 81.6581 41.866 81.677 41.9385C81.7706 42.3241 81.9729 42.6486 82.2726 42.9216C82.2515 42.9368 82.2363 42.9521 82.2192 42.9636C81.9061 43.1678 81.7095 43.4484 81.6444 43.8168C81.6427 43.8282 81.6332 43.8397 81.6274 43.8511V46.7296C81.6427 46.785 81.6561 46.8422 81.6714 46.8976C81.824 47.434 82.3203 47.8119 82.8776 47.8138C84.563 47.8138 86.2485 47.8138 87.934 47.8138C88.6155 47.8119 89.1595 47.2927 89.1978 46.6094L89.2053 46.5597C89.318 46.6342 89.4247 46.7029 89.5298 46.7735C90.0261 47.1056 90.5222 47.4378 91.0205 47.7661C91.0682 47.7966 91.1389 47.8138 91.1942 47.8043C91.5015 47.7565 91.7211 47.497 91.7211 47.1858C91.723 45.9222 91.723 44.6567 91.7211 43.3911C91.7211 43.0819 91.4998 42.8204 91.1923 42.7746C91.137 42.767 91.0664 42.7841 91.0205 42.8147C90.4441 43.1926 89.8715 43.5763 89.2987 43.9599L89.2032 44.021C89.1881 43.6412 89.0411 43.33 88.7606 43.0762C89.3008 42.7288 89.6558 42.2535 89.7855 41.6274C89.8867 41.1368 89.8257 40.6616 89.6023 40.2111C89.1556 39.3139 88.2051 38.852 87.2545 39.0085C86.7869 39.0868 86.3651 39.3139 86.0425 39.6442V28.7564L87.224 27.9852C87.4568 27.8574 87.5771 27.5596 87.5123 27.3114L86.9739 25.2595C86.9091 25.0113 86.6571 24.8128 86.3917 24.8147L80.0889 24.3433L78.7966 24.4845L73.8243 25.7901L72.5817 26.1165L50.2087 31.9918L49.0081 32.3068L47.8398 32.6122L47.6758 31.9918C47.5784 31.6177 47.2635 31.4344 46.8912 31.5337L43.7838 32.3487C43.4727 32.4308 43.2435 32.824 43.3257 33.1333L43.8142 34.9982L41.3291 35.651C40.9569 35.7483 40.7736 36.0633 40.871 36.4355L41.1973 37.6781C41.6534 39.4189 43.3811 40.4268 45.1198 39.9706L45.6105 41.8355C45.7078 42.2077 46.0228 42.3909 46.3949 42.2936L49.5024 41.4766C49.8746 41.3793 50.058 41.0662 49.9606 40.6921L49.7983 40.0717L50.9666 39.7644L51.1918 39.7052V45.1205H46.8416C45.8262 45.1205 40.1207 47.9551 37.9943 49.2664C36.4272 50.2323 30.3612 54.3094 30.1377 56.1056C30.1377 56.1056 28.6108 63.8114 28.6108 66.4188C28.7959 67.5317 29.212 70.9369 29.212 70.9369C29.212 71.584 29.7369 72.109 30.3859 72.109H35.2762C35.2457 71.8188 35.1865 71.5401 35.1865 71.2385C35.1865 66.3501 39.1453 62.3874 44.0376 62.3874C48.926 62.3874 52.8885 66.3482 52.8885 71.2385C52.8885 71.5382 52.8295 71.8169 52.8009 72.109H71.4631C71.4344 71.8188 71.3735 71.5401 71.3735 71.2385C71.3735 66.3501 75.3341 62.3874 80.2245 62.3874C85.1147 62.3874 89.0773 66.3482 89.0773 71.2385C89.0773 71.5382 89.0182 71.8169 88.9896 72.109H95.7296C96.3766 72.109 96.9016 71.584 96.9016 70.9369V66.3864C96.9016 65.8806 96.4912 65.4702 95.9852 65.4682ZM83.5153 42.767C82.8242 42.7631 82.2573 42.1924 82.2573 41.5014C82.2592 40.8123 82.828 40.2416 83.519 40.2416C84.2118 40.2416 84.7865 40.8181 84.7806 41.511C84.7767 42.2 84.2042 42.7689 83.5153 42.767ZM87.6268 39.6098C88.4972 39.6117 89.1997 40.3199 89.1997 41.1941C89.1978 42.0645 88.4895 42.7689 87.6152 42.767C86.7449 42.767 86.0405 42.0569 86.0425 41.1827C86.0425 40.3122 86.7526 39.6098 87.6268 39.6098ZM52.5852 38.0102L53.6066 36.0804L55.4446 37.2601L52.5852 38.0102ZM52.4763 41.8297L54.0837 43.3071L52.4763 44.7864V41.8297ZM52.8619 40.4153L55.0017 38.705L55.1658 38.6611L57.2961 40.4153L55.0476 42.473L52.8619 40.4153ZM57.6166 41.8297V44.7864L56.0114 43.3071L57.6166 41.8297ZM57.6166 39.0658L56.6222 38.2794L57.6166 38.0179V39.0658ZM58.1168 36.5576L58.907 34.7557L60.478 35.9373L58.1168 36.5576ZM63.0892 35.252L63.8774 33.4501L65.4503 34.6317L63.0892 35.252ZM68.0618 33.9464L68.85 32.1445L70.4229 33.3261L68.0618 33.9464ZM74.8358 32.1674L73.0341 32.6408L73.8224 30.8389L75.3951 32.0204L74.8358 32.1674ZM80.026 25.6222L85.8439 26.0211L86.155 27.2026L81.2839 30.4094L78.9684 28.4262L80.026 25.6222ZM79.8694 30.8465L77.8804 31.3676L78.5009 29.6783L79.8694 30.8465ZM78.5638 25.8741L77.9453 27.5653L76.5748 26.3952L78.5638 25.8741ZM75.4465 27.1568L77.4147 28.8328L76.5233 31.2588L74.3702 29.6325L75.4465 27.1568ZM73.5304 27.195L74.0895 27.048L73.3013 28.8499L71.7283 27.6684L73.5304 27.195ZM70.5201 28.3842L72.7535 30.0563L71.6311 32.6103L69.3978 30.9381L70.5201 28.3842ZM69.1173 28.3536L68.3289 30.1555L66.756 28.974L69.1173 28.3536ZM65.5477 29.6898L67.781 31.3619L66.6587 33.9159L64.4253 32.2438L65.5477 29.6898ZM64.1448 29.6593L63.3564 31.4612L61.7837 30.2796L64.1448 29.6593ZM60.5773 30.9954L62.8086 32.6675L61.6863 35.2215L59.453 33.5494L60.5773 30.9954ZM59.1724 30.9649L58.3842 32.7668L56.8113 31.5852L59.1724 30.9649ZM55.6049 32.301L57.9165 34.0189L56.7311 36.5901L54.1694 34.9371L55.6049 32.301ZM54.1389 32.2877L53.1177 34.2175L51.2797 33.0378L54.1389 32.2877ZM49.4719 38.8272L48.1664 33.8567L49.2905 33.5608L50.5962 38.5332L49.4719 38.8272ZM50.7947 34.2289L52.5546 35.3608L51.5793 37.2124L50.7947 34.2289ZM55.0476 44.1432L56.1127 45.1205H53.9805L55.0476 44.1432ZM48.9069 53.7731L41.579 53.4008L46.1086 49.3237C46.4808 48.9877 46.9619 48.8026 47.462 48.8026H48.9069V53.7731ZM52.5946 53.962V48.8006H62.3982C65.3627 48.8006 68.2314 49.8123 70.5392 51.6696L74.7882 55.0863L52.5946 53.962ZM30.1377 56.1056C30.1377 56.1056 28.6108 63.8114 28.6108 66.4188C28.943 68.6063 29.212 70.9369 29.212 70.9369" fill="black"/>
<path d="M44.0339 64.2007C40.1494 64.2007 36.9942 67.3502 36.9961 71.2365C36.9961 75.1247 40.1494 78.2761 44.0339 78.2761C47.9181 78.2761 51.0696 75.1285 51.0696 71.2365C51.0696 67.3502 47.922 64.2007 44.0339 64.2007ZM44.0339 73.361C42.8636 73.361 41.9092 72.4085 41.9092 71.2365C41.9092 70.0664 42.8675 69.112 44.0339 69.112C45.202 69.112 46.1583 70.0664 46.1583 71.2365C46.1583 72.4085 45.202 73.361 44.0339 73.361Z" fill="black"/>
<path d="M40.6284 3.54122C40.5635 3.52977 40.4775 3.38851 40.4758 3.30644C40.4642 2.4093 40.4719 1.51218 40.4662 0.615043C40.4623 0.21992 40.2427 -0.0110485 39.9069 0.000407029C39.5882 0.00994759 39.3992 0.239009 39.3992 0.628405C39.3972 1.47781 39.3972 2.32723 39.3992 3.17664C39.3992 3.2778 39.3992 3.37897 39.3992 3.48968H29.0745C29.042 3.3618 29.0115 3.24345 28.981 3.1251C28.8606 2.63646 28.7844 2.57728 28.2747 2.57728C25.545 2.57728 22.8156 2.57919 20.0861 2.57728C19.4275 2.57728 18.7689 2.57728 18.1103 2.56774C17.8126 2.56201 17.6504 2.70135 17.5856 2.98195C17.5453 3.15565 17.4918 3.32553 17.4443 3.49351H7.13098C7.13098 3.37134 7.13098 3.26063 7.13098 3.14801C7.13098 2.28905 7.13489 1.43009 7.12915 0.571135C7.1272 0.223738 6.92291 0.0118626 6.61566 0.00613289C6.30249 0.00231819 6.08319 0.231368 6.07922 0.58068C6.07367 1.14377 6.07739 1.70687 6.07739 2.26996C6.07739 2.67654 6.07739 3.08502 6.07739 3.50687C5.961 3.52787 5.86743 3.54313 5.77576 3.56222C5.09247 3.69966 4.59625 4.1444 4.55993 4.79148C4.49689 5.90241 4.72015 6.9637 5.4552 7.84365C6.14801 8.67206 7.17114 8.64535 7.81421 7.77302C8.07587 7.41989 8.2688 7.00187 8.42511 6.58765C8.6676 5.94821 8.71899 5.27059 8.6466 4.53952C9.15039 4.53952 9.63336 4.53952 10.1183 4.54143C11.9698 4.54334 13.8214 4.54525 15.6728 4.55479C15.7721 4.55479 15.923 4.58724 15.963 4.65596C16.1347 4.95946 16.276 5.28014 16.4307 5.59891L16.1769 5.77642C13.9931 7.29391 12.7487 9.38787 12.6265 12.0315C12.5197 14.3946 12.6016 16.7653 12.6016 19.1323C12.6016 19.4167 12.7733 19.598 13.0273 19.6037C13.2985 19.6095 13.4741 19.4319 13.4797 19.1284C13.4873 18.8135 13.4816 18.4985 13.4816 18.1836C13.4816 17.8056 13.4816 17.4277 13.4816 17.0192H14.3024V14.9024H13.4816C13.4816 14.0797 13.4778 13.299 13.4835 12.5183C13.4989 10.6057 14.1268 8.92784 15.4495 7.53633C15.8485 7.11449 16.3237 6.76327 16.7877 6.36051C16.8601 6.51704 16.904 6.59148 16.9307 6.67165C17.0796 7.12595 17.3831 7.30345 17.8662 7.29009C18.828 7.26337 19.7921 7.28246 20.756 7.27292C20.9583 7.27101 21.1111 7.32446 21.2693 7.45616C22.4719 8.45828 24.1384 8.43347 25.3372 7.41989C25.4344 7.33972 25.589 7.29009 25.7169 7.28819C26.7476 7.27483 27.7786 7.27673 28.8092 7.27673C29.1719 7.27673 29.4315 7.13166 29.567 6.78427C29.6146 6.6621 29.6738 6.54757 29.7349 6.41395C31.3975 7.51916 32.4302 9.01946 32.8845 10.9225C33.1479 12.0239 33.0334 13.1444 33.0505 14.2591C33.0544 14.4653 33.0524 14.6714 33.0524 14.9062H32.2182V17.0402H33.0485C33.0485 17.1738 33.0485 17.2769 33.0485 17.38C33.0505 17.9622 33.0544 18.5443 33.0562 19.1265C33.0562 19.3537 33.1592 19.5159 33.3749 19.5808C33.5811 19.6419 33.7662 19.5751 33.8617 19.3823C33.9172 19.2716 33.9209 19.1265 33.9209 18.9967C33.9248 16.8207 33.9323 14.6447 33.9209 12.4687C33.9095 9.90515 32.8864 7.81884 30.9164 6.19063C30.6607 5.98067 30.3896 5.78978 30.1243 5.58745C30.2485 5.31067 30.3783 5.0568 30.4813 4.79148C30.5595 4.59106 30.6779 4.5338 30.8899 4.5357C33.0085 4.54716 35.1273 4.54716 37.246 4.55098C37.4637 4.55098 37.6794 4.55098 37.8511 4.55098C37.8759 4.98236 37.8683 5.39276 37.9294 5.7936C38.0419 6.54566 38.2634 7.26528 38.7692 7.85892C39.4698 8.67969 40.5178 8.63006 41.161 7.76348C41.6649 7.08395 41.894 6.30516 41.9855 5.48056C42.1267 4.23029 41.5789 3.70347 40.6284 3.54122Z" fill="black"/>
<path d="M28.9221 10.6094C27.9485 10.6075 26.9751 10.6075 26.0015 10.5979C25.908 10.596 25.7687 10.5426 25.7324 10.4719C25.4767 9.96992 25.051 9.75994 24.5205 9.75231C23.6899 9.73895 22.8597 9.74277 22.0294 9.75804C21.5369 9.76758 21.1016 9.93365 20.8669 10.4013C20.7772 10.5845 20.6704 10.6132 20.4946 10.6113C19.4849 10.6036 18.4713 10.5979 17.4616 10.6036C16.471 10.6094 15.656 11.3786 15.6502 12.3368C15.6407 14.761 15.6387 17.1871 15.6522 19.6112C15.656 20.5045 16.4327 21.3024 17.3013 21.3101C19.2864 21.3234 21.2717 21.3139 23.2568 21.3139V21.3215C25.1751 21.3215 27.0934 21.3215 29.0118 21.3215C30.1361 21.3215 30.8768 20.5828 30.8768 19.4604C30.8768 17.1603 30.8768 14.8602 30.8768 12.5601C30.8768 11.3233 30.1609 10.6094 28.9221 10.6094ZM23.3695 19.7678C21.1916 19.7658 19.4754 18.0861 19.4811 15.9578C19.487 13.8543 21.1857 12.186 23.3351 12.1688C25.3353 12.1517 27.0609 13.9135 27.0552 15.9673C27.0496 18.0269 25.3602 19.7678 23.3695 19.7678ZM28.7062 13.5165C28.3189 13.5165 27.9772 13.1786 27.9733 12.7892C27.9716 12.4017 28.3093 12.062 28.7025 12.062C29.0938 12.06 29.4337 12.396 29.4337 12.7854C29.4354 13.1729 29.0957 13.5145 28.7062 13.5165Z" fill="black"/>
<path d="M5.44935 2.3044C5.44178 2.03908 5.40162 1.77566 5.36152 1.51415C5.35981 1.50079 5.25477 1.50461 5.1974 1.49698C4.92445 1.46262 4.6496 1.44162 4.37861 1.38817C3.38618 1.19157 2.3877 1.04841 1.37605 1.16103C1.00184 1.20111 0.624031 1.2851 0.272713 1.41108C-0.0708542 1.53515 -0.0860519 1.78902 0.20594 2.00663C0.333931 2.10206 0.480843 2.18032 0.627876 2.2395C1.39704 2.55445 2.20069 2.66898 3.03291 2.68424C3.76972 2.61362 4.50837 2.54872 5.24531 2.46664C5.32154 2.4571 5.4513 2.35785 5.44935 2.3044Z" fill="black"/>
<path d="M11.4601 2.63258C11.9469 2.60203 12.4394 2.5066 12.9069 2.36344C13.304 2.24127 13.3288 1.93396 12.9661 1.73353C12.6035 1.53502 12.2084 1.36323 11.8076 1.27351C10.4637 0.977646 9.11804 1.14371 7.74365 1.33651V2.21264C8.091 2.25845 8.40601 2.28136 8.71143 2.34626C9.61816 2.53522 10.5323 2.69365 11.4601 2.63258Z" fill="black"/>
<path d="M33.6976 2.40179C34.1767 2.51059 34.6749 2.64994 35.1559 2.6213C36.3697 2.54877 37.5781 2.39225 38.8323 2.26627C38.8323 2.01812 38.8227 1.81006 38.8341 1.60392C38.8456 1.40349 38.7692 1.30424 38.5651 1.2966C37.4885 1.2527 36.4119 1.14199 35.3411 1.18589C34.7645 1.2107 34.192 1.48556 33.6327 1.68599C33.5009 1.7318 33.3311 1.9475 33.3501 2.0563C33.3712 2.19183 33.5545 2.36934 33.6976 2.40179Z" fill="black"/>
<path d="M46.2554 1.39947C45.9118 1.27349 45.5415 1.19141 45.1769 1.15323C43.795 1.01007 42.4589 1.3861 41.0825 1.54453V2.43403C42.3461 2.61155 43.6078 2.76235 44.8678 2.53329C45.364 2.44167 45.8507 2.24125 46.3069 2.01983C46.6562 1.84994 46.6238 1.53308 46.2554 1.39947Z" fill="black"/>
<path d="M23.1263 13.5795C21.8912 13.6158 20.8243 14.7668 20.8779 16.0094C20.9351 17.3532 22.0001 18.3973 23.2657 18.3534C24.6764 18.3019 25.7014 17.252 25.6612 15.8987C25.623 14.5549 24.514 13.5394 23.1263 13.5795Z" fill="black"/>
</svg>
