<svg width="86" height="85" viewBox="0 0 86 85" fill="none" xmlns="http://www.w3.org/2000/svg">
<path d="M39.9399 48.6982V55.7454L46.9873 52.2218L39.9399 48.6982Z" fill="black"/>
<path d="M71.0042 28.5539V22.637H64.2202L70.1375 28.5539H71.0042Z" fill="black"/>
<path d="M55.3447 22.637L61.2618 28.5539H65.954L60.0367 22.637H55.3447Z" fill="black"/>
<path d="M64.4835 0.64209L60.0161 2.57399L58.2646 10.7468L62.7201 8.87114L64.4835 0.64209Z" fill="black"/>
<path d="M42.8984 37.429C34.7424 37.429 28.1055 44.0658 28.1055 52.2221C28.1055 60.3784 34.7424 67.0133 42.8984 67.0133C51.0549 67.0133 57.6918 60.3784 57.6918 52.2221C57.6918 44.0658 51.0549 37.429 42.8984 37.429ZM36.9814 60.533V43.9112L53.603 52.2221L36.9814 60.533Z" fill="black"/>
<path d="M67.6471 0L66.0454 7.47018L70.4532 5.61522L67.6471 0Z" fill="black"/>
<path d="M76.9204 22.6377H73.9619V61.098H58.2468C55.1719 66.3949 49.4509 69.972 42.8982 69.972C36.3453 69.972 30.6245 66.3949 27.5497 61.098H11.8345V22.6377H8.87598V72.9306H76.9204V22.6377Z" fill="black"/>
<path d="M44.6772 19.6791H72.4825H73.9619H76.9205C78.5525 19.6791 79.8792 21.0057 79.8792 22.6377V72.9306H82.8375V21.1584C82.8375 18.7113 80.8467 16.7205 78.3998 16.7205H51.7036L44.6772 19.6791Z" fill="black"/>
<path d="M31.064 78.848H54.7328C55.5479 78.848 56.2122 78.1838 56.2122 77.3687V75.8894H29.5845V77.3687C29.5845 78.1838 30.2489 78.848 31.064 78.848Z" fill="black"/>
<path d="M14.793 58.1394H26.183C25.5242 56.286 25.1465 54.2989 25.1465 52.2221C25.1465 42.4338 33.1097 34.4703 42.8981 34.4703C52.6865 34.4703 60.6499 42.4338 60.6499 52.2221C60.6499 54.2989 60.272 56.286 59.6133 58.1394H71.0032V31.5117H14.793V58.1394Z" fill="black"/>
<path d="M14.7925 22.637V28.5539H21.5763L15.6594 22.637H14.7925Z" fill="black"/>
<path d="M30.4514 28.5539L24.5348 22.637H19.8428L25.7595 28.5539H30.4514Z" fill="black"/>
<path d="M46.4692 22.637L52.3864 28.5539H57.0782L51.1614 22.637H46.4692Z" fill="black"/>
<path d="M59.1704 75.8894V77.3687C59.1704 79.8158 57.1799 81.8067 54.7324 81.8067H31.0637C28.6182 81.8067 26.6255 79.8158 26.6255 77.3687V75.8894H0V80.3273C0 82.7744 1.99072 84.7653 4.43774 84.7653H81.3582C83.8054 84.7653 85.7961 82.7744 85.7961 80.3273V75.8894H59.1704ZM8.87573 81.8067H5.91699V78.848H8.87573V81.8067ZM14.793 81.8067H11.8345V78.848H14.793V81.8067ZM20.7102 81.8067H17.7517V78.848H20.7102V81.8067Z" fill="black"/>
<path d="M34.6353 28.5539H39.3274L33.4103 22.637H28.7183L34.6353 28.5539Z" fill="black"/>
<path d="M33.2745 14.1372L28.8073 16.0691L28.0352 19.6785H32.0865L33.2745 14.1372Z" fill="black"/>
<path d="M5.9176 22.6377C5.9176 21.0057 7.24426 19.6791 8.87622 19.6791H11.8346H13.007L19.8499 16.7205H7.39685C4.94971 16.7205 2.95898 18.7113 2.95898 21.1584V72.9306H5.9176V22.6377Z" fill="black"/>
<path d="M25.4727 17.5112L20.4609 19.6783H25.0083L25.4727 17.5112Z" fill="black"/>
<path d="M48.8789 7.39038L44.4117 9.32079L42.7031 17.2998L47.1571 15.4242L48.8789 7.39038Z" fill="black"/>
<path d="M39.3767 18.6991L41.0774 10.7644L36.6102 12.6948L35.1133 19.6783H37.0513L39.3767 18.6991Z" fill="black"/>
<path d="M56.6803 4.01611L52.2147 5.948L50.4839 14.0232L54.9379 12.1475L56.6803 4.01611Z" fill="black"/>
<path d="M43.5105 28.5539H48.2028L42.2856 22.637H37.5938L43.5105 28.5539Z" fill="black"/>
</svg>
